# xmcd
#
# Track frame offsets:
# 182
# 16097
# 33317
# 50000
# 65012
# 81485
# 96945
# 109155
# 124032
# 140750
#
# Disc length: 2090 seconds
#
#
# Revision: 2
# Processed by: cddbd v1.5.1PL2 Copyright (c) Steve Scherf et al.
# Submitted via: FreeRIP 2.945 
#
DISCID=8c08280a
DTITLE=Tanya Tucker - Love Me Like You Used To
DYEAR=1987
DGENRE=Country
TTITLE0=If It Don't Come Easy
TTITLE1=Love Me Like You Used To
TTITLE2=I Won't Take Less Than Your Love
TTITLE3=I Wonder What He's Doing Tonight
TTITLE4=I'll Tennessee You IN My Dreams
TTITLE5=Alien
TTITLE6=Temporarily Blue
TTITLE7=If I Didn't Love You
TTITLE8=Heartbreaker
TTITLE9=Hope You Find What You're Loving For
EXTD=
EXTT0=
EXTT1=
EXTT2=
EXTT3=
EXTT4=
EXTT5=
EXTT6=
EXTT7=
EXTT8=
EXTT9=
PLAYORDER=
